<mxfile host="app.diagrams.net" modified="2022-11-28T11:00:02.397Z" agent="5.0 (Macintosh; Intel Mac OS X 10_14_6) AppleWebKit/537.36 (KHTML, like Gecko) Chrome/107.0.0.0 Safari/537.36" etag="DQr609R4gZR7uB3QUUoT" version="20.5.3" type="github">
  <diagram id="_3LdEdrG_TYqJLb3gQVo" name="第 1 页">
    <mxGraphModel dx="2253" dy="771" grid="1" gridSize="10" guides="1" tooltips="1" connect="1" arrows="1" fold="1" page="1" pageScale="1" pageWidth="827" pageHeight="1169" math="0" shadow="0">
      <root>
        <mxCell id="0" />
        <mxCell id="1" parent="0" />
        <mxCell id="QDvWHPv9r5oTe_tsyfkQ-3" value="" style="edgeStyle=orthogonalEdgeStyle;rounded=0;orthogonalLoop=1;jettySize=auto;html=1;fontSize=30;" edge="1" parent="1" source="QDvWHPv9r5oTe_tsyfkQ-1" target="QDvWHPv9r5oTe_tsyfkQ-2">
          <mxGeometry relative="1" as="geometry">
            <Array as="points">
              <mxPoint x="280" y="260" />
              <mxPoint x="100" y="260" />
            </Array>
          </mxGeometry>
        </mxCell>
        <mxCell id="QDvWHPv9r5oTe_tsyfkQ-5" value="" style="edgeStyle=orthogonalEdgeStyle;rounded=0;orthogonalLoop=1;jettySize=auto;html=1;fontSize=30;" edge="1" parent="1" source="QDvWHPv9r5oTe_tsyfkQ-1" target="QDvWHPv9r5oTe_tsyfkQ-4">
          <mxGeometry relative="1" as="geometry">
            <Array as="points">
              <mxPoint x="280" y="260" />
              <mxPoint x="460" y="260" />
            </Array>
          </mxGeometry>
        </mxCell>
        <mxCell id="QDvWHPv9r5oTe_tsyfkQ-1" value="&lt;font style=&quot;font-size: 30px;&quot;&gt;A&lt;/font&gt;" style="rounded=1;whiteSpace=wrap;html=1;" vertex="1" parent="1">
          <mxGeometry x="220" y="150" width="120" height="60" as="geometry" />
        </mxCell>
        <mxCell id="QDvWHPv9r5oTe_tsyfkQ-7" value="" style="edgeStyle=orthogonalEdgeStyle;rounded=0;orthogonalLoop=1;jettySize=auto;html=1;fontSize=30;" edge="1" parent="1" source="QDvWHPv9r5oTe_tsyfkQ-2" target="QDvWHPv9r5oTe_tsyfkQ-6">
          <mxGeometry relative="1" as="geometry" />
        </mxCell>
        <mxCell id="QDvWHPv9r5oTe_tsyfkQ-9" value="" style="edgeStyle=orthogonalEdgeStyle;rounded=0;orthogonalLoop=1;jettySize=auto;html=1;fontSize=30;" edge="1" parent="1" source="QDvWHPv9r5oTe_tsyfkQ-2" target="QDvWHPv9r5oTe_tsyfkQ-8">
          <mxGeometry relative="1" as="geometry" />
        </mxCell>
        <mxCell id="QDvWHPv9r5oTe_tsyfkQ-2" value="&lt;span style=&quot;font-size: 30px;&quot;&gt;B&lt;/span&gt;" style="rounded=1;whiteSpace=wrap;html=1;" vertex="1" parent="1">
          <mxGeometry x="40" y="300" width="120" height="60" as="geometry" />
        </mxCell>
        <mxCell id="QDvWHPv9r5oTe_tsyfkQ-13" value="" style="edgeStyle=orthogonalEdgeStyle;rounded=0;orthogonalLoop=1;jettySize=auto;html=1;fontSize=30;" edge="1" parent="1" source="QDvWHPv9r5oTe_tsyfkQ-4" target="QDvWHPv9r5oTe_tsyfkQ-12">
          <mxGeometry relative="1" as="geometry" />
        </mxCell>
        <mxCell id="QDvWHPv9r5oTe_tsyfkQ-16" style="edgeStyle=orthogonalEdgeStyle;rounded=0;orthogonalLoop=1;jettySize=auto;html=1;exitX=0.5;exitY=1;exitDx=0;exitDy=0;entryX=0.583;entryY=0;entryDx=0;entryDy=0;entryPerimeter=0;fontSize=30;" edge="1" parent="1" source="QDvWHPv9r5oTe_tsyfkQ-4" target="QDvWHPv9r5oTe_tsyfkQ-15">
          <mxGeometry relative="1" as="geometry" />
        </mxCell>
        <mxCell id="QDvWHPv9r5oTe_tsyfkQ-4" value="&lt;font style=&quot;font-size: 30px;&quot;&gt;C&lt;/font&gt;" style="rounded=1;whiteSpace=wrap;html=1;" vertex="1" parent="1">
          <mxGeometry x="400" y="300" width="120" height="60" as="geometry" />
        </mxCell>
        <mxCell id="QDvWHPv9r5oTe_tsyfkQ-6" value="&lt;span style=&quot;font-size: 30px;&quot;&gt;D&lt;/span&gt;" style="rounded=1;whiteSpace=wrap;html=1;" vertex="1" parent="1">
          <mxGeometry x="-50" y="440" width="120" height="60" as="geometry" />
        </mxCell>
        <mxCell id="QDvWHPv9r5oTe_tsyfkQ-8" value="&lt;span style=&quot;font-size: 30px;&quot;&gt;E&lt;/span&gt;" style="rounded=1;whiteSpace=wrap;html=1;" vertex="1" parent="1">
          <mxGeometry x="130" y="440" width="120" height="60" as="geometry" />
        </mxCell>
        <mxCell id="QDvWHPv9r5oTe_tsyfkQ-12" value="&lt;font style=&quot;font-size: 30px;&quot;&gt;F&lt;/font&gt;" style="rounded=1;whiteSpace=wrap;html=1;" vertex="1" parent="1">
          <mxGeometry x="310" y="440" width="120" height="60" as="geometry" />
        </mxCell>
        <mxCell id="QDvWHPv9r5oTe_tsyfkQ-15" value="G" style="rounded=1;whiteSpace=wrap;html=1;fontSize=30;" vertex="1" parent="1">
          <mxGeometry x="500" y="440" width="120" height="60" as="geometry" />
        </mxCell>
      </root>
    </mxGraphModel>
  </diagram>
</mxfile>
